<svg xmlns="http://www.w3.org/2000/svg" width="836" height="1254" viewBox="0 0 836 1254">
<g>
<path d="M 427.78 971.00 C427.41,932.22 426.64,893.53 426.05,885.00 C423.40,846.66 421.79,823.68 421.05,813.50 C420.27,802.86 418.62,796.63 416.75,797.25 C416.25,797.42 414.17,801.59 412.11,806.53 C408.75,814.62 402.07,826.67 402.02,824.72 C402.01,824.29 403.40,821.18 405.10,817.80 C411.51,805.10 415.78,779.80 414.61,761.50 C413.11,738.22 405.82,702.87 399.58,688.66 C397.25,683.33 399.21,684.93 403.19,691.58 C405.01,694.63 407.47,698.75 408.67,700.73 L 410.83 704.34 L 411.82 700.42 C413.55,693.50 414.13,687.80 413.02,688.49 C412.46,688.83 412.00,689.72 412.00,690.45 C412.00,691.18 411.15,692.82 410.12,694.10 C408.29,696.36 408.29,696.15 410.18,686.46 C412.17,676.23 411.95,667.97 409.69,668.04 C409.03,668.05 407.38,668.71 406.00,669.50 C401.36,672.15 401.81,671.03 407.44,665.88 C417.22,656.94 421.65,644.44 423.50,620.50 C424.69,605.23 420.85,579.51 415.95,569.90 C412.27,562.69 406.33,560.94 401.59,565.69 C397.40,569.88 398.24,574.46 404.00,578.82 C406.48,580.70 408.91,582.97 409.41,583.86 C410.23,585.35 410.14,585.36 408.41,583.96 C405.62,581.71 399.00,578.88 397.99,579.51 C397.51,579.80 397.77,581.59 398.56,583.49 C400.76,588.75 400.34,595.72 397.47,601.90 C394.71,607.83 393.07,608.48 395.49,602.69 C397.21,598.56 397.47,591.35 396.02,587.55 C395.48,586.14 393.89,584.45 392.49,583.81 C390.34,582.84 389.51,582.97 387.22,584.68 C381.78,588.74 380.87,591.73 380.82,605.71 C380.78,615.29 381.30,620.82 382.89,627.74 C385.73,640.16 385.42,643.58 382.41,633.00 C379.13,621.47 377.07,608.91 377.10,600.65 C377.11,596.88 376.82,593.50 376.44,593.15 C376.06,592.79 375.99,601.28 376.28,612.00 C376.69,627.09 377.49,635.69 379.85,650.00 C387.12,694.25 391.41,725.23 390.80,729.19 C390.61,730.46 389.64,726.33 388.65,720.00 C386.44,705.93 379.51,678.66 374.04,662.50 C369.72,649.72 354.64,618.42 350.49,613.59 C349.12,611.99 348.00,610.15 348.00,609.48 C348.00,608.20 336.36,593.00 335.39,593.00 C335.07,593.00 335.73,594.46 336.85,596.25 C337.96,598.04 340.32,601.97 342.09,605.00 C343.86,608.03 345.92,611.22 346.67,612.10 C348.25,613.95 357.21,640.12 356.51,640.82 C356.26,641.08 355.74,640.43 355.38,639.39 C347.22,616.43 331.57,591.81 317.23,579.38 C308.05,571.43 307.32,570.97 301.39,569.43 C289.65,566.37 275.34,557.49 262.86,545.51 C256.45,539.35 252.91,533.94 242.57,514.50 L 239.91 509.50 L 240.38 515.50 C241.97,536.17 259.66,570.98 278.94,591.39 C285.98,598.84 283.97,597.73 272.37,587.76 C260.06,577.18 249.11,563.98 233.99,541.50 C228.36,533.14 212.45,501.86 208.53,491.47 C204.25,480.13 203.02,465.38 205.59,456.28 C206.08,454.56 205.66,453.80 203.75,452.93 C201.66,451.98 200.66,452.19 197.35,454.28 C192.67,457.23 183.81,466.71 179.87,473.00 C178.31,475.47 177.03,477.20 177.02,476.84 C176.93,473.63 195.96,435.19 202.38,425.62 C206.61,419.32 208.98,414.00 205.53,418.56 C204.18,420.35 204.06,420.11 204.03,415.44 C204.00,409.58 207.03,397.26 210.57,388.82 C217.82,371.60 234.38,351.09 252.50,336.87 C263.30,328.39 263.34,328.85 252.67,339.00 C236.66,354.23 223.59,372.71 218.93,386.71 C216.20,394.92 216.79,396.21 220.75,390.70 C222.51,388.25 229.14,381.37 235.48,375.41 C241.83,369.44 246.86,364.10 246.66,363.53 C245.85,361.22 253.36,352.49 272.48,333.50 C283.56,322.50 293.85,311.92 295.35,310.00 C299.68,304.44 296.66,309.88 291.45,317.02 C288.85,320.58 279.70,330.49 271.11,339.03 C255.64,354.42 247.99,363.00 249.74,363.00 C250.24,363.00 251.74,361.83 253.08,360.40 C256.73,356.48 276.85,339.72 291.61,328.28 C304.42,318.36 314.99,307.73 330.43,289.25 C336.83,281.58 339.17,279.23 337.38,282.25 C331.57,292.04 314.72,315.33 310.66,319.18 L 307.50 322.19 L 312.50 318.84 C320.30,313.63 338.02,295.29 342.31,287.98 L 346.13 281.50 L 342.50 285.73 C339.09,289.70 331.20,296.12 333.62,292.96 C334.23,292.16 337.71,287.75 341.36,283.16 C353.54,267.84 377.45,230.23 397.90,194.25 C400.79,189.16 403.34,185.00 403.58,185.00 C403.82,185.00 400.90,191.19 397.09,198.75 C376.98,238.73 367.06,269.26 368.23,287.61 L 368.68 294.71 L 365.39 295.90 C360.18,297.79 352.66,309.05 351.41,316.84 C350.03,325.48 358.11,331.87 371.58,332.77 C384.21,333.61 393.74,329.34 398.04,320.91 C402.06,313.03 399.25,307.54 391.50,308.16 C388.81,308.37 387.42,308.12 387.79,307.50 C388.12,306.95 390.31,303.69 392.65,300.26 C407.13,279.02 413.83,250.16 416.61,197.15 C417.04,188.92 417.64,184.39 418.16,185.32 C419.48,187.68 420.18,295.89 419.29,360.50 L 418.50 418.50 L 415.79 411.00 C414.30,406.88 411.50,400.58 409.56,397.00 L 406.05 390.50 L 405.99 398.00 C405.95,402.19 405.35,406.54 404.62,407.85 C403.45,409.97 403.36,409.67 403.76,404.83 C404.58,394.94 399.86,383.81 391.59,376.19 C386.59,371.58 382.41,370.72 379.81,373.75 C377.66,376.25 377.18,377.97 375.98,387.69 C374.57,398.97 373.50,400.70 373.50,391.68 C373.50,386.94 372.68,381.78 371.07,376.50 C367.22,363.84 362.54,359.96 348.11,357.47 C337.24,355.59 328.71,356.48 318.78,360.51 C312.23,363.17 297.58,371.91 298.36,372.69 C298.62,372.95 299.73,372.68 300.84,372.09 C310.15,367.10 328.26,363.43 334.75,365.20 C336.54,365.69 338.00,366.21 338.00,366.36 C338.00,366.51 335.36,366.44 332.14,366.20 C319.71,365.30 306.28,371.66 294.87,383.83 C285.82,393.49 279.91,403.73 276.47,415.74 C274.09,424.02 273.88,426.19 274.17,438.88 C274.49,452.41 274.59,452.97 277.14,455.69 C280.64,459.43 282.50,463.29 284.48,470.92 C287.37,482.09 295.53,498.41 302.77,507.50 C312.00,519.10 326.79,530.76 340.05,536.91 C347.05,540.15 360.83,544.04 364.94,543.93 L 367.50 543.86 L 365.00 542.81 C355.58,538.83 349.07,534.88 343.52,529.80 C337.46,524.25 329.00,513.09 329.00,510.65 C329.00,510.03 330.52,511.78 332.38,514.54 C340.49,526.59 355.24,536.50 369.50,539.50 C378.48,541.38 383.16,541.37 390.54,539.45 C398.71,537.32 404.31,533.81 408.45,528.22 C410.37,525.63 412.69,522.74 413.60,521.80 C417.15,518.14 412.29,509.00 406.79,509.00 C405.72,509.00 402.06,510.08 398.67,511.41 C387.98,515.58 387.30,515.40 394.71,510.38 C409.33,500.48 418.01,483.76 417.99,465.54 C417.99,455.76 416.50,451.18 411.89,446.79 C406.27,441.43 400.60,440.10 378.55,438.94 C368.13,438.39 359.43,437.76 359.21,437.55 C358.99,437.33 361.00,436.85 363.66,436.47 C402.30,431.08 437.64,413.00 446.34,394.18 C448.22,390.10 448.49,387.84 448.41,376.50 C448.34,367.45 447.82,361.99 446.69,358.55 C444.17,350.83 445.31,352.16 449.42,361.75 C454.74,374.18 463.32,388.26 468.00,392.27 C475.53,398.72 489.38,400.81 502.54,397.50 C511.76,395.18 512.00,395.14 512.00,395.95 C512.00,396.36 508.06,397.93 503.25,399.43 C488.12,404.13 484.92,406.19 490.55,407.60 C494.20,408.52 499.22,407.50 505.69,404.54 C514.84,400.35 535.88,378.71 548.49,360.50 C551.16,356.65 553.79,353.05 554.33,352.50 C555.31,351.50 554.48,353.06 544.50,371.00 C536.94,384.58 533.82,392.56 533.23,399.79 C532.78,405.37 532.98,406.35 535.03,408.54 C537.13,410.76 538.13,411.00 545.42,410.99 C551.73,410.98 555.36,410.33 562.00,408.04 C570.19,405.22 570.40,405.20 567.65,407.42 C561.03,412.79 568.05,415.92 577.95,412.02 C596.28,404.79 614.75,381.90 621.15,358.44 C624.38,346.62 624.40,324.80 621.19,313.00 C618.47,303.04 612.02,288.94 606.06,279.98 C603.74,276.49 602.57,274.23 603.46,274.97 C605.93,277.01 615.35,291.63 619.28,299.50 C624.39,309.74 628.63,322.46 630.95,334.50 C634.59,353.32 633.45,378.66 628.40,391.48 L 626.83 395.46 L 628.96 393.53 C630.14,392.47 632.70,388.97 634.66,385.74 C636.61,382.52 638.40,380.06 638.62,380.29 C640.14,381.81 625.43,406.00 622.99,406.00 C622.65,406.00 621.33,407.46 620.04,409.25 L 617.71 412.50 L 621.46 409.00 C639.34,392.30 650.35,378.24 660.20,359.50 C662.81,354.55 664.95,351.04 664.97,351.70 C665.03,354.08 657.04,371.17 648.38,387.17 C630.96,419.39 629.16,424.43 626.99,447.24 C626.01,457.48 626.07,459.26 627.43,461.21 C630.54,465.64 628.25,478.56 622.26,490.50 C618.42,498.17 609.39,511.68 603.26,518.95 C594.22,529.69 563.99,562.00 562.99,562.00 C562.49,562.00 557.67,564.87 552.28,568.38 C546.90,571.89 541.38,575.09 540.00,575.50 C537.24,576.31 534.00,578.83 534.00,580.17 C534.00,582.63 555.26,576.41 566.94,570.53 C574.44,566.75 576.87,566.00 573.15,568.61 C563.45,575.40 540.81,584.00 532.63,584.00 C529.73,584.00 524.17,586.25 511.11,592.70 C496.02,600.16 492.66,602.25 487.67,607.31 C482.76,612.28 482.11,612.70 483.54,609.93 C486.13,604.91 493.82,598.01 502.59,592.83 C514.20,585.97 519.40,582.00 518.26,580.86 C516.88,579.48 504.06,584.14 495.93,588.97 C487.20,594.16 475.35,605.36 471.08,612.46 C461.02,629.21 454.33,662.78 457.95,678.37 C459.92,686.90 462.73,685.28 469.14,671.93 C471.48,667.06 473.58,663.25 473.80,663.47 C474.03,663.69 472.85,668.06 471.20,673.19 C467.42,684.87 460.71,707.98 458.05,718.50 C454.01,734.47 449.68,765.62 446.94,798.50 C446.30,806.20 445.60,812.69 445.39,812.92 C445.17,813.15 445.00,799.23 445.00,782.00 C445.00,764.77 444.78,750.89 444.51,751.16 C443.27,752.40 438.93,804.20 438.04,828.50 C437.07,854.72 435.03,896.81 433.05,931.50 C432.52,940.85 431.58,963.80 430.97,982.50 C428.88,1046.18 428.46,1044.68 427.78,971.00 ZM 417.66 787.75 C417.38,787.06 417.16,787.62 417.16,789.00 C417.16,790.38 417.38,790.94 417.66,790.25 C417.94,789.56 417.94,788.44 417.66,787.75 ZM 420.13 766.50 C420.15,756.49 419.54,750.28 417.49,739.50 C416.02,731.80 414.39,724.83 413.86,724.00 C412.77,722.27 412.91,723.20 416.22,739.50 C418.01,748.32 418.46,753.92 418.48,767.73 C418.49,778.04 418.82,783.87 419.30,782.23 C419.74,780.73 420.12,773.65 420.13,766.50 ZM 443.90 734.31 C446.70,710.53 446.77,703.37 444.19,700.79 C442.10,698.70 441.17,707.70 440.67,735.00 C440.39,750.12 440.36,761.60 440.60,760.50 C440.85,759.40 442.33,747.61 443.90,734.31 ZM 434.51 583.67 C434.92,515.91 434.87,458.01 434.40,454.99 L 433.56 449.50 L 432.90 456.50 C432.54,460.35 432.26,523.80 432.28,597.50 C432.29,671.20 432.63,725.95 433.03,719.18 C433.44,712.40 434.10,651.42 434.51,583.67 ZM 454.33 693.56 C455.67,689.60 455.68,688.59 454.34,684.31 C450.47,671.95 455.68,637.51 464.39,617.86 C471.51,601.78 489.00,586.97 511.49,577.95 C519.84,574.61 526.71,571.00 524.73,571.00 C522.96,571.00 498.80,581.09 493.46,584.06 C476.59,593.44 470.69,599.43 463.48,614.50 C450.89,640.79 446.40,667.00 450.66,689.25 C451.59,694.06 452.45,698.00 452.58,698.00 C452.71,698.00 453.49,696.00 454.33,693.56 ZM 420.72 663.60 C421.06,659.19 420.94,658.77 419.85,660.50 C419.15,661.60 418.53,663.85 418.46,665.50 C418.38,667.15 417.99,669.62 417.57,671.00 L 416.81 673.50 L 418.57 671.10 C419.53,669.78 420.50,666.41 420.72,663.60 ZM 368.44 623.41 C364.76,608.10 362.19,600.85 359.96,599.47 C357.43,597.91 359.84,608.31 364.83,620.50 C367.53,627.10 370.07,633.99 370.47,635.82 C370.86,637.65 371.38,638.96 371.61,638.73 C371.83,638.50 370.41,631.60 368.44,623.41 ZM 450.97 624.75 C455.57,611.90 463.94,599.14 474.16,589.42 C484.08,579.98 490.14,576.07 513.85,563.80 C546.43,546.93 557.38,538.52 570.31,520.42 C575.33,513.40 579.64,502.83 583.07,489.12 C584.67,482.73 585.98,477.05 585.98,476.50 C585.98,475.95 584.69,477.75 583.11,480.50 C581.53,483.25 577.92,487.45 575.10,489.83 C572.27,492.21 562.77,503.08 553.98,514.00 C545.19,524.91 534.73,536.85 530.75,540.54 C523.17,547.53 524.02,547.84 532.77,541.27 C540.33,535.58 559.77,516.45 565.34,509.21 C568.00,505.75 571.87,499.70 573.92,495.76 C575.98,491.83 578.19,488.44 578.83,488.22 C582.67,486.94 580.73,498.04 575.09,509.66 C570.04,520.06 561.81,530.34 552.28,538.17 C541.84,546.75 539.45,548.21 516.39,560.08 C496.83,570.15 484.34,577.62 476.57,583.90 C470.60,588.71 462.27,598.73 458.19,606.00 C454.39,612.76 448.05,627.57 448.02,629.75 C447.98,632.23 448.77,630.89 450.97,624.75 ZM 452.98 602.69 C452.99,602.25 452.55,602.16 452.00,602.50 C451.45,602.84 451.01,603.88 451.02,604.81 C451.03,606.27 451.16,606.29 452.00,605.00 C452.53,604.17 452.98,603.14 452.98,602.69 ZM 338.05 585.08 C334.80,580.50 323.45,570.41 312.50,562.34 C307.00,558.29 298.07,551.72 292.65,547.74 C275.03,534.79 262.45,520.83 255.03,506.00 C246.98,489.89 244.47,478.11 245.22,459.85 C245.58,451.22 245.44,448.25 244.75,450.00 C244.21,451.38 243.54,457.99 243.25,464.71 C242.81,475.06 243.08,478.39 244.99,486.66 C249.05,504.25 257.70,519.70 270.12,531.54 C274.18,535.41 287.15,545.54 298.95,554.04 C311.60,563.16 324.31,573.28 329.95,578.71 C335.20,583.78 339.64,587.94 339.82,587.96 C339.99,587.98 339.20,586.68 338.05,585.08 ZM 371.38 577.00 C372.27,571.22 373.11,564.93 373.25,563.02 C373.47,559.90 374.07,559.24 379.00,556.68 C387.95,552.02 396.31,546.31 400.03,542.32 L 403.50 538.58 L 399.49 542.08 C394.20,546.67 384.84,552.31 378.03,554.99 C372.74,557.07 372.38,557.09 366.69,555.49 C359.32,553.42 358.21,554.15 365.01,556.60 C367.82,557.61 370.51,558.91 370.99,559.49 C371.50,560.10 371.27,564.76 370.45,570.52 C369.11,580.02 368.56,588.81 369.38,587.92 C369.59,587.69 370.49,582.78 371.38,577.00 ZM 392.50 578.01 C395.25,578.43 397.65,578.65 397.83,578.48 C398.01,578.31 397.68,577.26 397.08,576.15 C396.49,575.04 396.00,572.53 396.00,570.57 C396.00,568.15 395.54,567.00 394.58,567.00 C391.86,567.00 389.92,568.26 388.60,570.87 C387.10,573.86 385.53,580.09 386.72,578.37 C387.25,577.59 389.09,577.48 392.50,578.01 ZM 422.69 571.27 C422.44,570.30 422.22,570.85 422.19,572.50 C422.17,574.15 422.38,574.95 422.66,574.27 C422.93,573.59 422.95,572.24 422.69,571.27 ZM 540.60 572.87 C541.64,571.70 547.01,567.71 552.52,564.01 C564.91,555.67 573.82,548.57 577.61,544.01 L 580.50 540.53 L 577.82 542.51 C576.35,543.61 567.35,550.41 557.82,557.62 C540.99,570.38 535.63,575.00 537.69,575.00 C538.24,575.00 539.55,574.04 540.60,572.87 ZM 460.32 564.28 C464.22,559.42 466.48,555.80 465.86,555.41 C465.28,555.05 464.19,553.35 463.44,551.63 C462.61,549.73 462.06,549.19 462.04,550.27 C462.02,551.25 460.61,555.07 458.91,558.77 C455.92,565.28 452.55,573.84 453.34,572.94 C453.55,572.70 456.69,568.80 460.32,564.28 ZM 466.32 568.81 C467.52,568.16 470.75,567.11 473.50,566.48 L 478.50 565.33 L 473.77 564.60 C471.17,564.21 468.78,563.46 468.46,562.94 C467.40,561.22 466.25,561.96 464.61,565.40 C462.22,570.44 462.45,570.91 466.32,568.81 ZM 304.00 568.62 C304.00,568.41 303.21,567.63 302.25,566.87 C300.66,565.63 300.63,565.66 301.87,567.25 C303.18,568.92 304.00,569.45 304.00,568.62 ZM 299.58 564.13 C299.24,563.59 293.01,559.20 285.73,554.39 C272.87,545.89 265.58,540.36 257.64,533.05 L 253.77 529.50 L 255.29 532.51 C257.39,536.68 270.57,550.61 275.85,554.24 C280.39,557.36 299.15,566.19 299.82,565.52 C300.03,565.31 299.92,564.68 299.58,564.13 ZM 491.62 553.40 C498.02,550.37 506.39,542.57 510.84,535.48 C512.56,532.74 513.97,530.95 513.97,531.50 C513.99,533.74 507.72,543.19 502.40,548.93 C496.37,555.45 496.79,555.67 506.22,550.92 C517.81,545.07 533.29,530.80 541.58,518.32 C546.02,511.63 550.04,499.06 550.31,491.00 C550.64,481.25 548.53,476.39 540.43,468.25 C536.47,464.26 533.43,461.00 533.69,461.00 C533.94,461.00 537.18,462.80 540.88,465.00 C548.17,469.33 550.98,469.87 553.43,467.43 C557.12,463.74 553.52,455.42 544.21,446.11 C534.33,436.24 519.07,432.56 503.99,436.42 C494.88,438.76 483.00,446.08 483.00,449.36 C483.00,449.90 484.01,449.42 485.25,448.29 C492.01,442.09 506.07,437.00 516.43,437.00 C527.55,437.00 541.41,444.30 547.87,453.56 C551.21,458.36 550.43,458.37 544.57,453.60 C537.23,447.62 527.51,442.31 521.27,440.87 C514.18,439.24 503.65,441.07 494.28,445.57 C486.19,449.46 476.08,458.20 473.58,463.46 C472.47,465.81 471.46,466.73 470.44,466.34 C469.21,465.87 469.50,464.77 472.10,460.13 C479.22,447.45 484.04,440.97 489.01,437.40 C491.80,435.39 493.84,433.51 493.54,433.21 C493.24,432.91 489.51,434.41 485.25,436.55 C465.53,446.44 449.59,471.94 454.99,484.97 C456.94,489.69 459.26,488.75 466.00,480.50 C469.37,476.38 472.32,473.00 472.55,473.00 C472.78,473.00 471.42,475.43 469.52,478.41 C460.50,492.50 456.43,509.61 460.81,515.01 L 462.61 517.24 L 466.56 515.22 C471.37,512.77 479.64,504.20 483.41,497.75 C484.94,495.14 486.36,493.00 486.57,493.00 C487.12,493.00 485.76,496.25 480.54,507.44 C471.76,526.21 468.78,534.29 468.24,540.75 C467.62,548.30 468.26,548.53 475.81,543.44 L 481.10 539.88 L 478.05 544.09 C470.64,554.32 478.41,559.65 491.62,553.40 ZM 469.96 553.07 C471.47,550.26 471.25,549.80 469.00,551.00 C467.90,551.59 467.00,552.73 467.00,553.54 C467.00,555.62 468.74,555.35 469.96,553.07 ZM 247.19 552.25 C243.77,545.45 241.51,539.89 237.55,528.60 C233.14,516.01 232.00,513.40 232.00,515.89 C232.00,520.23 245.71,554.00 247.47,554.00 C247.80,554.00 247.67,553.21 247.19,552.25 ZM 413.31 545.47 C415.91,540.02 415.31,537.89 412.47,542.50 C411.12,544.70 410.01,547.06 410.01,547.75 C410.00,550.12 411.63,548.99 413.31,545.47 ZM 458.29 532.25 C460.82,528.54 463.19,524.26 463.56,522.75 C464.15,520.28 463.95,520.00 461.61,520.00 C460.17,520.00 459.00,519.55 459.00,519.00 C459.00,518.45 458.62,518.00 458.16,518.00 C457.70,518.00 457.25,519.96 457.16,522.35 C457.07,524.74 456.10,529.31 455.00,532.51 C452.01,541.18 452.19,541.17 458.29,532.25 ZM 578.84 531.55 C581.93,528.73 586.58,523.00 585.79,523.00 C585.60,523.00 582.31,526.24 578.47,530.19 C571.75,537.13 571.94,537.86 578.84,531.55 ZM 257.34 527.21 C248.74,519.15 245.93,514.94 241.38,503.33 C238.34,495.57 237.98,495.05 238.48,499.00 C239.54,507.41 247.05,519.52 256.63,528.25 C260.11,531.41 263.30,533.98 263.72,533.96 C264.15,533.93 261.28,530.90 257.34,527.21 ZM 310.34 523.75 C304.23,517.51 292.92,502.93 289.21,496.50 C288.46,495.19 288.05,495.00 288.03,495.94 C288.01,496.73 287.11,498.32 286.02,499.48 L 284.04 501.58 L 288.87 507.54 C291.52,510.82 295.67,515.13 298.10,517.11 C304.53,522.37 316.19,531.00 316.87,531.00 C317.19,531.00 314.25,527.74 310.34,523.75 ZM 412.54 527.93 C413.41,526.24 413.98,524.47 413.81,523.98 C413.64,523.49 412.75,524.87 411.82,527.05 C409.84,531.73 410.28,532.29 412.54,527.93 ZM 228.19 524.34 C227.66,523.33 224.75,515.53 221.73,507.00 C216.37,491.84 212.75,477.26 211.49,465.77 C211.14,462.61 210.48,459.80 210.01,459.51 C208.73,458.71 207.66,471.34 208.39,478.54 C209.13,485.70 212.90,498.03 216.65,505.49 C221.95,516.03 228.24,527.09 228.69,526.64 C228.95,526.38 228.72,525.35 228.19,524.34 ZM 588.31 514.84 C594.92,507.61 603.79,493.10 607.52,483.38 C610.42,475.86 611.36,475.59 610.69,482.50 C610.03,489.23 605.03,499.95 596.44,513.07 C593.65,517.32 591.96,520.57 592.67,520.30 C595.34,519.27 610.21,500.53 613.43,494.14 C619.57,481.93 621.17,475.07 621.74,458.42 C622.28,442.55 621.62,439.00 618.12,439.00 C614.84,439.00 613.29,442.18 612.65,450.25 C612.30,454.51 612.36,458.00 612.76,457.99 C613.17,457.98 614.29,456.11 615.25,453.82 C617.64,448.14 618.49,449.61 616.57,456.08 C615.71,458.99 615.00,463.93 615.00,467.06 C615.00,473.87 614.06,479.15 612.96,478.48 C612.53,478.21 611.86,474.68 611.48,470.63 C610.67,461.97 609.39,458.99 608.67,464.07 C606.29,480.79 605.81,482.59 601.78,489.93 C595.10,502.08 591.03,508.11 585.34,514.31 C580.22,519.87 578.99,522.00 580.87,522.00 C581.35,522.00 584.70,518.78 588.31,514.84 ZM 453.13 497.60 C453.21,494.45 452.76,491.36 452.13,490.73 C451.29,489.89 451.00,490.86 451.01,494.55 C451.03,499.45 451.91,504.43 452.63,503.71 C452.83,503.50 453.06,500.75 453.13,497.60 ZM 283.81 487.03 C284.17,482.18 280.55,463.96 278.41,459.83 C275.80,454.77 274.63,455.22 275.32,461.02 C276.27,469.07 274.08,465.75 272.92,457.39 C271.59,447.83 270.58,444.50 269.00,444.50 C264.38,444.50 266.80,465.90 272.96,479.50 C276.00,486.22 280.67,492.27 282.37,491.71 C282.99,491.51 283.64,489.40 283.81,487.03 ZM 227.82 432.93 C232.47,413.86 241.12,395.14 252.07,380.50 C254.95,376.65 256.54,374.14 255.61,374.91 C250.16,379.43 236.28,402.80 231.50,415.50 C225.11,432.47 223.82,439.32 223.49,458.00 L 223.17 475.50 L 223.98 460.43 C224.59,449.19 225.57,442.19 227.82,432.93 ZM 451.95 462.76 C453.57,457.70 460.40,448.64 467.40,442.25 C470.57,439.36 472.69,437.00 472.12,437.00 C471.54,437.00 468.13,439.75 464.54,443.11 C455.84,451.25 456.13,448.66 464.90,439.90 C472.17,432.62 472.38,430.73 465.29,436.37 C456.10,443.67 451.92,451.27 449.56,464.97 C448.82,469.29 450.31,467.91 451.95,462.76 ZM 262.42 445.00 C263.25,440.05 266.57,434.90 268.47,435.63 C269.74,436.11 270.00,435.19 270.00,430.27 C270.00,422.12 273.24,410.11 278.09,400.32 C281.34,393.75 283.80,390.55 290.55,384.07 C295.17,379.63 298.72,376.00 298.43,376.00 C298.15,376.00 295.44,377.87 292.42,380.15 C279.45,389.94 269.83,406.03 265.36,425.40 C264.49,429.20 263.18,433.71 262.47,435.42 C261.75,437.13 260.90,441.90 260.58,446.02 C260.00,453.47 261.11,452.85 262.42,445.00 ZM 214.99 441.50 C216.01,440.40 217.17,438.15 217.57,436.50 C218.46,432.75 216.93,433.99 215.32,438.32 C214.29,441.10 214.20,440.48 214.57,433.50 L 215.00 425.50 L 212.21 436.50 C210.68,442.55 209.08,448.06 208.65,448.75 C208.23,449.44 208.19,450.49 208.56,451.10 C208.94,451.71 210.09,450.28 211.18,447.85 C212.25,445.46 213.96,442.60 214.99,441.50 ZM 583.00 440.73 C583.00,439.25 577.26,434.00 575.64,434.00 C572.76,434.00 573.06,435.74 576.72,440.45 C580.09,444.78 580.51,445.02 581.70,443.39 C582.42,442.42 583.00,441.22 583.00,440.73 ZM 419.00 433.12 C419.00,432.64 418.41,431.75 417.68,431.15 C416.09,429.83 408.62,431.57 409.53,433.05 C410.27,434.25 419.00,434.31 419.00,433.12 ZM 235.57 394.17 C240.02,386.51 240.02,386.50 236.50,390.50 C232.27,395.31 223.11,408.87 220.14,414.71 C217.70,419.51 217.47,422.47 219.23,426.22 C220.41,428.71 220.72,428.20 225.80,415.34 C228.73,407.92 233.13,398.39 235.57,394.17 ZM 423.45 426.89 C424.98,425.46 422.79,425.90 420.00,427.58 L 417.50 429.08 L 420.00 428.43 C421.38,428.07 422.93,427.38 423.45,426.89 ZM 541.45 427.09 C540.93,426.59 536.45,424.74 531.50,422.97 C524.23,420.38 520.84,419.73 513.84,419.63 C509.08,419.56 504.87,419.80 504.50,420.17 C504.12,420.55 504.13,421.82 504.50,423.01 C505.15,425.05 505.55,425.13 511.35,424.34 C520.22,423.13 528.69,423.67 535.53,425.87 C542.89,428.25 542.60,428.19 541.45,427.09 ZM 559.50 419.00 C560.30,417.71 555.00,417.71 553.00,419.00 C551.88,419.72 552.44,419.97 555.19,419.98 C557.22,419.99 559.16,419.55 559.50,419.00 ZM 208.91 410.00 C209.51,406.98 210.67,402.06 211.49,399.07 C212.31,396.09 212.80,393.47 212.58,393.25 C211.81,392.48 207.00,409.36 207.00,412.83 C207.00,417.52 207.59,416.64 208.91,410.00 ZM 461.00 414.00 C461.00,413.45 460.58,413.00 460.06,413.00 C459.54,413.00 458.84,413.45 458.50,414.00 C458.16,414.55 458.58,415.00 459.44,415.00 C460.30,415.00 461.00,414.55 461.00,414.00 ZM 485.92 404.64 C484.74,403.62 479.89,403.02 480.48,403.96 C480.83,404.53 482.29,405.00 483.73,405.00 C485.16,405.00 486.15,404.84 485.92,404.64 ZM 266.47 397.92 C270.95,390.66 281.92,379.38 291.27,372.43 C298.62,366.96 317.09,356.97 323.50,354.99 C328.47,353.46 330.75,351.58 326.50,352.52 C304.54,357.39 291.39,365.38 277.15,382.48 C268.77,392.55 265.74,396.64 263.62,400.75 C260.94,405.96 262.40,404.51 266.47,397.92 ZM 226.13 389.25 C227.37,387.66 227.34,387.63 225.75,388.87 C224.79,389.63 224.00,390.41 224.00,390.62 C224.00,391.45 224.82,390.92 226.13,389.25 ZM 379.77 365.93 C383.33,364.95 383.84,364.51 382.84,363.30 C381.34,361.50 375.81,358.65 368.48,355.91 C362.62,353.71 360.14,354.01 363.67,356.48 C364.80,357.27 367.46,360.19 369.58,362.97 C371.70,365.75 373.89,367.82 374.46,367.57 C375.03,367.32 377.42,366.58 379.77,365.93 ZM 351.00 353.12 C351.00,351.67 346.78,351.01 342.50,351.78 L 338.50 352.50 L 344.50 353.08 C347.80,353.40 350.61,353.74 350.75,353.83 C350.89,353.92 351.00,353.60 351.00,353.12 ZM 322.19 348.42 C328.07,347.09 334.51,346.00 336.50,346.00 C338.66,346.00 339.87,345.60 339.50,345.00 C339.16,344.45 334.75,344.00 329.69,344.00 C321.59,344.00 319.76,344.35 314.25,346.96 C310.81,348.58 308.00,350.43 308.00,351.06 C308.00,351.75 308.70,351.94 309.75,351.53 C310.71,351.16 316.31,349.76 322.19,348.42 ZM 332.76 337.31 C331.81,337.06 330.01,337.05 328.76,337.29 C327.52,337.53 328.30,337.74 330.50,337.75 C332.70,337.76 333.72,337.56 332.76,337.31 ZM 458.62 470.75 C459.92,465.09 465.50,455.04 468.30,453.32 C468.94,452.92 468.99,453.20 468.44,454.10 C462.83,463.11 460.91,467.05 459.89,471.61 C459.22,474.58 458.34,477.00 457.93,477.00 C457.52,477.00 457.83,474.19 458.62,470.75 Z" fill="rgba(0,0,0,1)"/>
</g>
</svg>